<?xml version="1.0" encoding="UTF-8" standalone="no"?><!DOCTYPE svg PUBLIC "-//W3C//DTD SVG 1.1//EN" "http://www.w3.org/Graphics/SVG/1.1/DTD/svg11.dtd"><svg width="100%" height="100%" viewBox="0 0 134 134" version="1.1" xmlns="http://www.w3.org/2000/svg" xmlns:xlink="http://www.w3.org/1999/xlink" xml:space="preserve" xmlns:serif="http://www.serif.com/" style="fill-rule:evenodd;clip-rule:evenodd;stroke-linejoin:round;stroke-miterlimit:2;"><path d="M62.5,12.166l0,108.334c-0,2.299 1.867,4.166 4.167,4.166c2.299,0 4.166,-1.867 4.166,-4.166l0,-108.334c0,-2.299 -1.867,-4.166 -4.166,-4.166c-2.3,-0 -4.167,1.867 -4.167,4.166Z" style="fill:#18b8c4;"/><path d="M64.064,15.42l20.833,16.667c1.796,1.436 4.42,1.145 5.857,-0.651c1.436,-1.796 1.145,-4.42 -0.651,-5.857l-20.833,-16.666c-1.796,-1.437 -4.42,-1.145 -5.857,0.65c-1.437,1.796 -1.145,4.42 0.651,5.857Z" style="fill:#18b8c4;"/><path d="M64.064,8.913l-20.834,16.666c-1.795,1.437 -2.087,4.061 -0.65,5.857c1.436,1.796 4.061,2.087 5.856,0.651l20.834,-16.667c1.795,-1.437 2.087,-4.061 0.65,-5.857c-1.436,-1.795 -4.061,-2.087 -5.856,-0.65Z" style="fill:#18b8c4;"/></svg>